<svg width="143" height="32" viewBox="0 0 143 32" fill="none" xmlns="http://www.w3.org/2000/svg">
<rect width="142.435" height="32" rx="5.21739" fill="#018CF1"/>
<path d="M26.0786 12.7024C26.0313 12.5517 25.9733 12.4046 25.905 12.2623V12.2532C25.5862 11.6022 25.0576 11.0785 24.405 10.7669C23.7523 10.4553 23.0139 10.3741 22.3095 10.5365C21.6051 10.6989 20.9761 11.0953 20.5244 11.6615C20.0727 12.2277 19.8249 12.9305 19.8211 13.6558C19.8211 13.8839 19.8456 14.1114 19.8942 14.3342C19.8944 14.3373 19.8944 14.3403 19.8942 14.3434C19.9124 14.4351 19.9398 14.5267 19.9673 14.6184C20.1303 15.2642 20.162 15.9364 20.0605 16.5947C19.959 17.2531 19.7264 17.8842 19.3766 18.4504C19.0267 19.0166 18.5668 19.5062 18.0242 19.8901C17.4816 20.274 16.8676 20.5442 16.2186 20.6847C15.5697 20.8252 14.8992 20.833 14.2472 20.7077C13.5952 20.5824 12.9751 20.3266 12.4237 19.9555C11.8724 19.5844 11.4012 19.1057 11.0383 18.5478C10.6754 17.99 10.4283 17.3644 10.3115 16.7086C10.4766 17.8455 10.8777 18.9348 11.4889 19.9062C12.1001 20.8776 12.9078 21.7094 13.8596 22.3477C14.8114 22.9859 15.8862 23.4165 17.0143 23.6115C18.1425 23.8065 19.2989 23.7615 20.4086 23.4795C21.5184 23.1976 22.5567 22.6848 23.4565 21.9746C24.3563 21.2643 25.0974 20.3724 25.6319 19.3564C26.1664 18.3405 26.4824 17.2233 26.5593 16.077C26.6362 14.9308 26.4725 13.7811 26.0786 12.7024V12.7024Z" fill="#6378FF"/>
<path d="M13.0982 15.4618C14.1579 17.0111 16.3503 16.8736 16.3503 16.8736C15.8022 16.3419 15.4459 15.856 15.4094 14.4717C15.3728 13.0874 14.5872 12.7207 14.5872 12.7207C15.994 11.8314 15.4916 10.8688 15.4459 9.79623C15.4185 9.12699 15.8113 8.63194 16.1219 8.34775C14.3343 8.61648 12.7189 9.5673 11.6127 11.002C10.5065 12.4367 9.99474 14.2445 10.1841 16.0485C10.312 15.691 12.1208 14.0317 13.0982 15.4618Z" fill="white"/>
<path d="M26.0786 12.7024C26.0313 12.5517 25.9733 12.4046 25.905 12.2623V12.2532C25.5862 11.6022 25.0576 11.0785 24.405 10.7669C23.7523 10.4553 23.0139 10.3741 22.3095 10.5365C21.6051 10.6989 20.9761 11.0953 20.5244 11.6615C20.0727 12.2277 19.8249 12.9305 19.8211 13.6558C19.8211 13.8839 19.8456 14.1114 19.8942 14.3342C19.8944 14.3373 19.8944 14.3403 19.8942 14.3434C19.9124 14.4351 19.9398 14.5267 19.9673 14.6184C20.1303 15.2642 20.162 15.9364 20.0605 16.5947C19.959 17.2531 19.7264 17.8842 19.3766 18.4504C19.0267 19.0166 18.5668 19.5062 18.0242 19.8901C17.4816 20.274 16.8676 20.5442 16.2186 20.6847C15.5697 20.8252 14.8992 20.833 14.2472 20.7077C13.5952 20.5824 12.9751 20.3266 12.4237 19.9555C11.8724 19.5844 11.4012 19.1057 11.0383 18.5478C10.6754 17.99 10.4283 17.3644 10.3115 16.7086C10.4766 17.8455 10.8777 18.9348 11.4889 19.9062C12.1001 20.8776 12.9078 21.7094 13.8596 22.3477C14.8114 22.9859 15.8862 23.4165 17.0143 23.6115C18.1425 23.8065 19.2989 23.7615 20.4086 23.4795C21.5184 23.1976 22.5567 22.6848 23.4565 21.9746C24.3563 21.2643 25.0974 20.3724 25.6319 19.3564C26.1664 18.3405 26.4824 17.2233 26.5593 16.077C26.6362 14.9308 26.4725 13.7811 26.0786 12.7024V12.7024Z" fill="white"/>
<path fill-rule="evenodd" clip-rule="evenodd" d="M24.7178 14.9117C24.7178 18.9065 21.4909 22.145 17.5103 22.145C15.3975 22.145 13.497 21.2327 12.1787 19.7792C12.2586 19.8404 12.3404 19.8992 12.4241 19.9555C12.9754 20.3266 13.5956 20.5824 14.2476 20.7077C14.8996 20.833 15.5701 20.8251 16.219 20.6847C16.8679 20.5442 17.482 20.2739 18.0246 19.8901C18.5671 19.5062 19.0271 19.0166 19.3769 18.4504C19.7268 17.8842 19.9594 17.2531 20.0609 16.5947C20.1624 15.9363 20.1307 15.2642 19.9676 14.6184C19.9402 14.5267 19.9128 14.435 19.8945 14.3433C19.8948 14.3403 19.8948 14.3372 19.8945 14.3342C19.846 14.1113 19.8215 13.8839 19.8215 13.6558C19.8252 12.9305 20.0731 12.2277 20.5248 11.6615C20.9765 11.0953 21.6055 10.6988 22.3099 10.5364C22.6005 10.4694 22.8968 10.4439 23.1906 10.4589C24.1475 11.6865 24.7178 13.2323 24.7178 14.9117Z" fill="white"/>
<path d="M35.2746 11.932H38.4066C39.7986 11.932 40.8426 12.316 41.5626 13.084C42.2466 13.804 42.5946 14.848 42.5946 16.216C42.5946 17.572 42.2466 18.616 41.5626 19.348C40.8426 20.116 39.7986 20.5 38.4066 20.5H35.2746V11.932ZM36.6786 13.132V19.3H38.1426C39.2106 19.3 39.9906 19.048 40.4826 18.556C40.9626 18.052 41.2026 17.272 41.2026 16.216C41.2026 15.136 40.9626 14.344 40.4826 13.864C39.9906 13.372 39.2106 13.132 38.1426 13.132H36.6786ZM46.4313 14.128C47.4513 14.128 48.2313 14.464 48.7713 15.16C49.2633 15.784 49.5153 16.66 49.5153 17.776H44.8713C44.9193 18.352 45.0753 18.796 45.3393 19.096C45.6033 19.396 45.9873 19.552 46.4793 19.552C46.8993 19.552 47.2353 19.456 47.4993 19.264C47.7033 19.108 47.8833 18.856 48.0513 18.508H49.4193C49.2753 19.084 48.9873 19.576 48.5553 19.96C48.0033 20.428 47.3193 20.668 46.4913 20.668C45.5673 20.668 44.8353 20.38 44.2953 19.816C43.7193 19.228 43.4313 18.424 43.4313 17.392C43.4313 16.468 43.6953 15.7 44.2473 15.076C44.7753 14.44 45.5073 14.128 46.4313 14.128ZM46.4673 15.244C46.0113 15.244 45.6633 15.364 45.3993 15.628C45.1473 15.88 44.9793 16.252 44.8953 16.744H48.0873C47.9673 15.736 47.4273 15.244 46.4673 15.244ZM53.7439 14.128C54.6559 14.128 55.3759 14.452 55.9039 15.1C56.3839 15.7 56.6239 16.468 56.6239 17.428C56.6239 18.34 56.3839 19.096 55.9159 19.696C55.4119 20.344 54.7039 20.668 53.8159 20.668C53.0959 20.668 52.4719 20.32 51.9679 19.648V22.876H50.5999V14.296H51.8719V14.956C52.3039 14.404 52.9279 14.128 53.7439 14.128ZM53.5399 15.232C52.9999 15.232 52.5919 15.436 52.3039 15.868C52.0399 16.24 51.9199 16.732 51.9199 17.356V17.452C51.9199 18.1 52.0759 18.628 52.3999 19.024C52.6879 19.384 53.0479 19.564 53.4919 19.564C54.0919 19.564 54.5479 19.36 54.8359 18.976C55.0879 18.616 55.2199 18.1 55.2199 17.428C55.2199 16.756 55.0999 16.24 54.8719 15.88C54.5839 15.448 54.1399 15.232 53.5399 15.232ZM57.9386 11.764H59.3066V20.5H57.9386V11.764ZM63.7455 14.128C64.6815 14.128 65.4375 14.428 66.0135 15.052C66.5775 15.664 66.8655 16.444 66.8655 17.404C66.8655 18.352 66.5775 19.132 66.0255 19.732C65.4495 20.356 64.6815 20.668 63.7455 20.668C62.7975 20.668 62.0415 20.356 61.4655 19.732C60.9015 19.132 60.6255 18.352 60.6255 17.404C60.6255 16.444 60.9015 15.664 61.4775 15.052C62.0415 14.428 62.7975 14.128 63.7455 14.128ZM63.7455 15.244C63.1695 15.244 62.7375 15.46 62.4255 15.916C62.1615 16.3 62.0295 16.804 62.0295 17.404C62.0295 18.004 62.1615 18.496 62.4255 18.88C62.7375 19.324 63.1695 19.552 63.7455 19.552C64.3095 19.552 64.7535 19.324 65.0655 18.88C65.3295 18.484 65.4735 17.992 65.4735 17.404C65.4735 16.804 65.3295 16.3 65.0655 15.916C64.7535 15.46 64.3095 15.244 63.7455 15.244ZM67.4008 14.296H68.8888L70.5328 18.712L72.1048 14.296H73.5928L70.2328 22.876H68.7688L69.8608 20.356L67.4008 14.296ZM81.2533 14.128C82.1893 14.128 82.9453 14.428 83.5213 15.052C84.0853 15.664 84.3733 16.444 84.3733 17.404C84.3733 18.352 84.0853 19.132 83.5333 19.732C82.9573 20.356 82.1893 20.668 81.2533 20.668C80.3053 20.668 79.5493 20.356 78.9733 19.732C78.4093 19.132 78.1333 18.352 78.1333 17.404C78.1333 16.444 78.4093 15.664 78.9853 15.052C79.5493 14.428 80.3053 14.128 81.2533 14.128ZM81.2533 15.244C80.6773 15.244 80.2453 15.46 79.9333 15.916C79.6693 16.3 79.5373 16.804 79.5373 17.404C79.5373 18.004 79.6693 18.496 79.9333 18.88C80.2453 19.324 80.6773 19.552 81.2533 19.552C81.8173 19.552 82.2613 19.324 82.5733 18.88C82.8373 18.484 82.9813 17.992 82.9813 17.404C82.9813 16.804 82.8373 16.3 82.5733 15.916C82.2613 15.46 81.8173 15.244 81.2533 15.244ZM88.7726 14.128C90.3206 14.128 91.1006 14.968 91.1006 16.672V20.5H89.7326V16.792C89.7326 15.772 89.2646 15.268 88.3286 15.268C87.9926 15.268 87.6926 15.388 87.4406 15.628C87.1526 15.892 86.9846 16.276 86.9366 16.768V20.5H85.5686V14.296H86.9366V15.016C87.1766 14.728 87.4526 14.5 87.7526 14.356C88.0646 14.2 88.4006 14.128 88.7726 14.128ZM99.6814 11.764C100.689 11.764 101.481 11.968 102.045 12.388C102.645 12.832 102.993 13.528 103.077 14.464H101.685C101.565 13.936 101.337 13.552 101.025 13.324C100.713 13.084 100.233 12.976 99.6094 12.976C99.0694 12.976 98.6614 13.048 98.3734 13.204C98.0134 13.384 97.8454 13.684 97.8454 14.092C97.8454 14.452 98.0374 14.752 98.4454 14.968C98.6254 15.064 99.1174 15.244 99.9094 15.496C101.073 15.856 101.817 16.144 102.153 16.336C102.897 16.78 103.269 17.392 103.269 18.184C103.269 18.952 102.969 19.564 102.369 20.008C101.769 20.44 100.917 20.668 99.8254 20.668C98.7694 20.668 97.9414 20.464 97.3534 20.056C96.6334 19.552 96.2374 18.76 96.1774 17.668H97.5694C97.6654 18.316 97.8934 18.784 98.2654 19.06C98.6014 19.3 99.1174 19.432 99.8254 19.432C100.449 19.432 100.953 19.324 101.313 19.12C101.673 18.904 101.865 18.628 101.865 18.268C101.865 17.812 101.589 17.452 101.061 17.188C100.893 17.104 100.341 16.912 99.3934 16.624C98.3374 16.288 97.6774 16.048 97.4254 15.904C96.7654 15.508 96.4414 14.932 96.4414 14.176C96.4414 13.42 96.7534 12.82 97.4014 12.388C98.0014 11.968 98.7574 11.764 99.6814 11.764ZM106.994 14.128C108.014 14.128 108.794 14.464 109.334 15.16C109.826 15.784 110.078 16.66 110.078 17.776H105.434C105.482 18.352 105.638 18.796 105.902 19.096C106.166 19.396 106.55 19.552 107.042 19.552C107.462 19.552 107.798 19.456 108.062 19.264C108.266 19.108 108.446 18.856 108.614 18.508H109.982C109.838 19.084 109.55 19.576 109.118 19.96C108.566 20.428 107.882 20.668 107.054 20.668C106.13 20.668 105.398 20.38 104.858 19.816C104.282 19.228 103.994 18.424 103.994 17.392C103.994 16.468 104.258 15.7 104.81 15.076C105.338 14.44 106.07 14.128 106.994 14.128ZM107.03 15.244C106.574 15.244 106.226 15.364 105.962 15.628C105.71 15.88 105.542 16.252 105.458 16.744H108.65C108.53 15.736 107.99 15.244 107.03 15.244ZM113.982 14.128C114.894 14.128 115.578 14.356 116.01 14.812C116.394 15.208 116.586 15.784 116.586 16.54V20.5H115.314V19.684C115.074 19.996 114.774 20.224 114.426 20.392C114.03 20.572 113.562 20.668 113.022 20.668C112.374 20.668 111.87 20.5 111.498 20.176C111.114 19.84 110.922 19.42 110.922 18.904C110.922 18.208 111.186 17.668 111.738 17.296C112.242 16.936 112.95 16.744 113.862 16.72L115.218 16.684V16.444C115.218 15.628 114.774 15.232 113.886 15.232C113.502 15.232 113.202 15.292 112.974 15.436C112.71 15.592 112.53 15.832 112.458 16.156L111.102 16.048C111.234 15.364 111.57 14.86 112.11 14.548C112.566 14.26 113.19 14.128 113.982 14.128ZM115.218 17.668L113.958 17.704C112.866 17.728 112.326 18.112 112.326 18.856C112.326 19.072 112.41 19.252 112.602 19.396C112.794 19.54 113.034 19.624 113.334 19.624C113.862 19.624 114.306 19.468 114.666 19.168C115.026 18.856 115.218 18.46 115.218 17.98V17.668ZM118.15 11.764H119.518V20.5H118.15V11.764ZM123.956 14.128C124.892 14.128 125.648 14.428 126.224 15.052C126.788 15.664 127.076 16.444 127.076 17.404C127.076 18.352 126.788 19.132 126.236 19.732C125.66 20.356 124.892 20.668 123.956 20.668C123.008 20.668 122.252 20.356 121.676 19.732C121.112 19.132 120.836 18.352 120.836 17.404C120.836 16.444 121.112 15.664 121.688 15.052C122.252 14.428 123.008 14.128 123.956 14.128ZM123.956 15.244C123.38 15.244 122.948 15.46 122.636 15.916C122.372 16.3 122.24 16.804 122.24 17.404C122.24 18.004 122.372 18.496 122.636 18.88C122.948 19.324 123.38 19.552 123.956 19.552C124.52 19.552 124.964 19.324 125.276 18.88C125.54 18.484 125.684 17.992 125.684 17.404C125.684 16.804 125.54 16.3 125.276 15.916C124.964 15.46 124.52 15.244 123.956 15.244ZM130.612 14.128C132.244 14.128 133.144 14.776 133.288 16.096H131.956C131.86 15.784 131.716 15.556 131.524 15.436C131.32 15.304 131.008 15.244 130.588 15.244C130.228 15.244 129.952 15.292 129.772 15.4C129.556 15.508 129.46 15.676 129.46 15.916C129.46 16.108 129.616 16.288 129.952 16.432C130.156 16.516 130.564 16.636 131.188 16.792C131.884 16.96 132.412 17.152 132.748 17.38C133.24 17.692 133.492 18.136 133.492 18.688C133.492 20.008 132.556 20.668 130.696 20.668C128.968 20.668 128.044 19.936 127.912 18.484H129.244C129.316 18.88 129.46 19.156 129.664 19.324C129.868 19.468 130.192 19.552 130.648 19.552C131.608 19.552 132.088 19.288 132.088 18.784C132.088 18.496 131.908 18.268 131.548 18.1C131.356 18.004 130.948 17.896 130.324 17.752C129.592 17.584 129.076 17.404 128.776 17.212C128.296 16.912 128.056 16.492 128.056 15.952C128.056 15.376 128.284 14.932 128.764 14.62C129.232 14.284 129.844 14.128 130.612 14.128Z" fill="white"/>
</svg>
