<svg width="133" height="32" viewBox="0 0 133 32" fill="none" xmlns="http://www.w3.org/2000/svg">
<rect x="0.277344" width="132.444" height="32" rx="3.55556" fill="url(#paint0_linear_2994_86017)"/>
<g filter="url(#filter0_d_2994_86017)">
<path d="M27.6468 12.6292C27.5985 12.4752 27.5392 12.3248 27.4693 12.1794V12.17C27.1434 11.5046 26.6031 10.9692 25.9359 10.6507C25.2688 10.3321 24.514 10.2491 23.7939 10.4151C23.0739 10.5812 22.4309 10.9864 21.9691 11.5652C21.5074 12.144 21.2541 12.8624 21.2502 13.6038C21.2503 13.837 21.2753 14.0695 21.3249 14.2973C21.3251 14.3004 21.3251 14.3035 21.3249 14.3067C21.3436 14.4004 21.3716 14.4941 21.3996 14.5878C21.5663 15.248 21.5987 15.935 21.495 16.6081C21.3912 17.2811 21.1534 17.9262 20.7958 18.505C20.4382 19.0837 19.968 19.5843 19.4134 19.9767C18.8587 20.3691 18.231 20.6453 17.5677 20.7889C16.9043 20.9325 16.219 20.9405 15.5525 20.8124C14.886 20.6844 14.252 20.4229 13.6885 20.0435C13.1249 19.6642 12.6432 19.1748 12.2723 18.6045C11.9013 18.0343 11.6486 17.3949 11.5293 16.7245C11.698 17.8866 12.1081 19.0002 12.7328 19.9931C13.3576 20.9861 14.1832 21.8364 15.1562 22.4888C16.1292 23.1413 17.2279 23.5814 18.3811 23.7807C19.5343 23.98 20.7164 23.9341 21.8508 23.6459C22.9852 23.3576 24.0467 22.8335 24.9664 22.1075C25.8862 21.3814 26.6438 20.4696 27.1902 19.4311C27.7365 18.3926 28.0595 17.2505 28.1382 16.0788C28.2168 14.9071 28.0494 13.7319 27.6468 12.6292V12.6292Z" fill="#6378FF"/>
<path d="M14.3777 15.4499C15.4609 17.0337 17.7021 16.8931 17.7021 16.8931C17.1418 16.3496 16.7776 15.8529 16.7402 14.4378C16.7029 13.0227 15.8998 12.6479 15.8998 12.6479C17.3379 11.7389 16.8243 10.7549 16.7776 9.65844C16.7496 8.97433 17.1511 8.46828 17.4686 8.17776C15.6412 8.45247 13.99 9.42442 12.8592 10.891C11.7284 12.3575 11.2053 14.2055 11.3989 16.0497C11.5296 15.6842 13.3785 13.988 14.3777 15.4499Z" fill="#0AA3F9"/>
<path d="M27.6468 12.6292C27.5985 12.4752 27.5392 12.3248 27.4693 12.1794V12.17C27.1434 11.5046 26.6031 10.9692 25.9359 10.6507C25.2688 10.3321 24.514 10.2491 23.7939 10.4151C23.0739 10.5812 22.4309 10.9864 21.9691 11.5652C21.5074 12.144 21.2541 12.8624 21.2502 13.6038C21.2503 13.837 21.2753 14.0695 21.3249 14.2973C21.3251 14.3004 21.3251 14.3035 21.3249 14.3067C21.3436 14.4004 21.3716 14.4941 21.3996 14.5878C21.5663 15.248 21.5987 15.935 21.495 16.6081C21.3912 17.2811 21.1534 17.9262 20.7958 18.505C20.4382 19.0837 19.968 19.5843 19.4134 19.9767C18.8587 20.3691 18.231 20.6453 17.5677 20.7889C16.9043 20.9325 16.219 20.9405 15.5525 20.8124C14.886 20.6844 14.252 20.4229 13.6885 20.0435C13.1249 19.6642 12.6432 19.1748 12.2723 18.6045C11.9013 18.0343 11.6486 17.3949 11.5293 16.7245C11.698 17.8866 12.1081 19.0002 12.7328 19.9931C13.3576 20.9861 14.1832 21.8364 15.1562 22.4888C16.1292 23.1413 17.2279 23.5814 18.3811 23.7807C19.5343 23.98 20.7164 23.9341 21.8508 23.6459C22.9852 23.3576 24.0467 22.8335 24.9664 22.1075C25.8862 21.3814 26.6438 20.4696 27.1902 19.4311C27.7365 18.3926 28.0595 17.2505 28.1382 16.0788C28.2168 14.9071 28.0494 13.7319 27.6468 12.6292V12.6292Z" fill="#0AA3F9"/>
<path fill-rule="evenodd" clip-rule="evenodd" d="M26.2549 14.8877C26.2549 18.9712 22.9563 22.2816 18.8872 22.2816C16.7271 22.2816 14.7842 21.3488 13.4365 19.8626C13.5185 19.9254 13.6024 19.9857 13.6883 20.0435C14.2518 20.4228 14.8858 20.6843 15.5523 20.8124C16.2188 20.9405 16.9041 20.9325 17.5675 20.7889C18.2308 20.6453 18.8585 20.369 19.4132 19.9766C19.9678 19.5842 20.438 19.0837 20.7956 18.5049C21.1532 17.9262 21.391 17.281 21.4948 16.608C21.5985 15.935 21.5661 15.2479 21.3994 14.5878C21.3714 14.494 21.3434 14.4003 21.3247 14.3066C21.3249 14.3035 21.3249 14.3004 21.3247 14.2973C21.2751 14.0694 21.2501 13.837 21.25 13.6038C21.2539 12.8623 21.5072 12.144 21.9689 11.5652C22.4307 10.9864 23.0737 10.5811 23.7938 10.4151C24.0907 10.3467 24.3935 10.3205 24.6937 10.3358C25.6719 11.5908 26.2549 13.1709 26.2549 14.8877Z" fill="#7ABBFD"/>
</g>
<path d="M36.5797 11.884H39.353C40.5797 11.884 41.5077 12.2253 42.1477 12.9187C42.745 13.5587 43.0437 14.4867 43.0437 15.692C43.0437 16.8867 42.7343 17.8147 42.1263 18.476C41.4863 19.1587 40.5583 19.5 39.3317 19.5H36.5797V11.884ZM37.7423 12.876V18.508H39.1183C40.0783 18.508 40.793 18.2733 41.241 17.8147C41.6783 17.356 41.9023 16.652 41.9023 15.692C41.9023 14.7107 41.6783 14.0067 41.2517 13.5587C40.8037 13.1 40.0997 12.876 39.1397 12.876H37.7423ZM46.4548 13.836C47.3508 13.836 48.0442 14.1347 48.5135 14.7533C48.9402 15.308 49.1642 16.076 49.1748 17.0573H44.9935C45.0362 17.5907 45.1748 18.0067 45.4308 18.2947C45.6868 18.572 46.0388 18.7213 46.4868 18.7213C46.8815 18.7213 47.2015 18.6253 47.4468 18.444C47.6388 18.2947 47.7988 18.0493 47.9482 17.7293H49.0788C48.9508 18.2413 48.7055 18.6787 48.3215 19.02C47.8415 19.436 47.2335 19.6493 46.4975 19.6493C45.6868 19.6493 45.0362 19.3933 44.5668 18.892C44.0548 18.3587 43.7988 17.644 43.7988 16.7373C43.7988 15.916 44.0335 15.2333 44.5242 14.6787C44.9935 14.1133 45.6442 13.836 46.4548 13.836ZM46.4868 14.764C46.0602 14.764 45.7295 14.8813 45.4735 15.1373C45.2388 15.3827 45.0788 15.7347 45.0148 16.204H47.9908C47.8842 15.244 47.3828 14.764 46.4868 14.764ZM52.9023 13.836C53.713 13.836 54.3423 14.124 54.8117 14.7C55.2383 15.2333 55.4517 15.916 55.4517 16.7693C55.4517 17.58 55.2383 18.252 54.8223 18.7853C54.3743 19.3613 53.745 19.6493 52.9557 19.6493C52.273 19.6493 51.7183 19.3293 51.2703 18.6893V21.612H50.1397V13.9853H51.1957V14.6467C51.5797 14.1027 52.1557 13.836 52.9023 13.836ZM52.7317 14.7533C52.241 14.7533 51.857 14.9453 51.5903 15.34C51.3557 15.6813 51.2383 16.14 51.2383 16.7053V16.8013C51.2383 17.388 51.377 17.868 51.6757 18.2307C51.9317 18.5613 52.273 18.732 52.6997 18.732C53.2543 18.732 53.6597 18.5507 53.9263 18.188C54.161 17.8467 54.289 17.3773 54.289 16.7693C54.289 16.1613 54.1717 15.692 53.9583 15.3507C53.6917 14.9453 53.2863 14.7533 52.7317 14.7533ZM56.6427 11.7347H57.7733V19.5H56.6427V11.7347ZM61.72 13.836C62.552 13.836 63.224 14.1133 63.7253 14.668C64.216 15.212 64.472 15.9053 64.472 16.748C64.472 17.58 64.2267 18.2733 63.736 18.8067C63.224 19.3613 62.552 19.6493 61.72 19.6493C60.888 19.6493 60.216 19.3613 59.704 18.8067C59.2133 18.2733 58.968 17.58 58.968 16.748C58.968 15.9053 59.2133 15.212 59.7147 14.668C60.216 14.1133 60.888 13.836 61.72 13.836ZM61.72 14.764C61.1973 14.764 60.792 14.9667 60.504 15.3827C60.248 15.7347 60.1307 16.1933 60.1307 16.748C60.1307 17.3027 60.248 17.7507 60.504 18.1027C60.792 18.508 61.1973 18.7213 61.72 18.7213C62.2427 18.7213 62.648 18.508 62.9467 18.1027C63.2027 17.74 63.3307 17.292 63.3307 16.748C63.3307 16.1933 63.2027 15.7347 62.9467 15.3827C62.648 14.9667 62.2427 14.764 61.72 14.764ZM64.9593 13.9853H66.1859L67.7006 18.0067L69.1513 13.9853H70.3886L67.3913 21.612H66.1859L67.1459 19.372L64.9593 13.9853ZM77.1679 13.836C77.9999 13.836 78.6719 14.1133 79.1733 14.668C79.6639 15.212 79.9199 15.9053 79.9199 16.748C79.9199 17.58 79.6746 18.2733 79.1839 18.8067C78.6719 19.3613 77.9999 19.6493 77.1679 19.6493C76.3359 19.6493 75.6639 19.3613 75.1519 18.8067C74.6613 18.2733 74.4159 17.58 74.4159 16.748C74.4159 15.9053 74.6613 15.212 75.1626 14.668C75.6639 14.1133 76.3359 13.836 77.1679 13.836ZM77.1679 14.764C76.6453 14.764 76.2399 14.9667 75.9519 15.3827C75.6959 15.7347 75.5786 16.1933 75.5786 16.748C75.5786 17.3027 75.6959 17.7507 75.9519 18.1027C76.2399 18.508 76.6453 18.7213 77.1679 18.7213C77.6906 18.7213 78.0959 18.508 78.3946 18.1027C78.6506 17.74 78.7786 17.292 78.7786 16.748C78.7786 16.1933 78.6506 15.7347 78.3946 15.3827C78.0959 14.9667 77.6906 14.764 77.1679 14.764ZM83.7885 13.836C85.1538 13.836 85.8472 14.5827 85.8472 16.0973V19.5H84.7165V16.1933C84.7165 15.2547 84.2792 14.7853 83.4258 14.7853C83.1058 14.7853 82.8178 14.892 82.5832 15.1267C82.3272 15.3827 82.1672 15.7347 82.1245 16.1827V19.5H80.9938V13.9853H82.1245V14.668C82.3378 14.3907 82.5832 14.188 82.8605 14.0493C83.1378 13.9 83.4472 13.836 83.7885 13.836ZM93.4651 11.7347C94.3504 11.7347 95.0438 11.916 95.5451 12.3C96.0784 12.6947 96.3771 13.3027 96.4518 14.1347H95.2998C95.1931 13.644 95.0011 13.2813 94.7024 13.068C94.4038 12.844 93.9771 12.7373 93.4011 12.7373C92.8998 12.7373 92.5158 12.812 92.2491 12.9613C91.9184 13.132 91.7584 13.4093 91.7584 13.7933C91.7584 14.1347 91.9398 14.4013 92.3238 14.604C92.4944 14.7 92.9318 14.86 93.6464 15.0733C94.6704 15.3933 95.3424 15.6387 95.6411 15.82C96.2918 16.2147 96.6224 16.7587 96.6224 17.4627C96.6224 18.1453 96.3558 18.6787 95.8224 19.0733C95.2891 19.4573 94.5424 19.6493 93.5824 19.6493C92.6544 19.6493 91.9291 19.4573 91.4064 19.0947C90.7771 18.6467 90.4358 17.9427 90.3718 16.9827H91.5238C91.6091 17.58 91.8224 18.0173 92.1638 18.2733C92.4731 18.508 92.9424 18.6253 93.5824 18.6253C94.1584 18.6253 94.6171 18.5187 94.9584 18.3267C95.2998 18.1347 95.4704 17.868 95.4704 17.5267C95.4704 17.1 95.2251 16.7693 94.7451 16.524C94.5744 16.4387 94.0731 16.268 93.2304 16.012C92.2918 15.7133 91.7158 15.5107 91.4811 15.3827C90.8944 15.0307 90.6064 14.5187 90.6064 13.8573C90.6064 13.1853 90.8838 12.6627 91.4491 12.2787C91.9824 11.916 92.6544 11.7347 93.4651 11.7347ZM99.934 13.836C100.83 13.836 101.523 14.1347 101.993 14.7533C102.419 15.308 102.643 16.076 102.654 17.0573H98.4727C98.5153 17.5907 98.654 18.0067 98.91 18.2947C99.166 18.572 99.518 18.7213 99.966 18.7213C100.361 18.7213 100.681 18.6253 100.926 18.444C101.118 18.2947 101.278 18.0493 101.427 17.7293H102.558C102.43 18.2413 102.185 18.6787 101.801 19.02C101.321 19.436 100.713 19.6493 99.9767 19.6493C99.166 19.6493 98.5153 19.3933 98.046 18.892C97.534 18.3587 97.278 17.644 97.278 16.7373C97.278 15.916 97.5127 15.2333 98.0033 14.6787C98.4727 14.1133 99.1233 13.836 99.934 13.836ZM99.966 14.764C99.5393 14.764 99.2087 14.8813 98.9527 15.1373C98.718 15.3827 98.558 15.7347 98.494 16.204H101.47C101.363 15.244 100.862 14.764 99.966 14.764ZM106.104 13.836C106.915 13.836 107.512 14.0387 107.896 14.444C108.227 14.796 108.398 15.308 108.398 15.98V19.5H107.352V18.7213C107.139 18.9987 106.872 19.2227 106.552 19.3827C106.19 19.5533 105.763 19.6493 105.272 19.6493C104.696 19.6493 104.248 19.5 103.928 19.212C103.576 18.924 103.406 18.5507 103.406 18.092C103.406 17.4733 103.651 16.9933 104.142 16.6627C104.59 16.3427 105.23 16.1827 106.04 16.1613L107.278 16.1293V15.9053C107.278 15.1373 106.862 14.7533 106.03 14.7533C105.678 14.7533 105.39 14.8173 105.176 14.9453C104.92 15.0947 104.76 15.3187 104.696 15.628L103.576 15.532C103.694 14.9347 103.992 14.4867 104.462 14.2093C104.867 13.9533 105.422 13.836 106.104 13.836ZM107.278 16.9507L106.115 16.9827C105.08 17.004 104.568 17.3667 104.568 18.0493C104.568 18.2627 104.654 18.4333 104.835 18.572C105.006 18.7107 105.24 18.7853 105.528 18.7853C106.008 18.7853 106.414 18.636 106.755 18.348C107.096 18.06 107.278 17.6973 107.278 17.2707V16.9507ZM109.82 11.7347H110.95V19.5H109.82V11.7347ZM114.897 13.836C115.729 13.836 116.401 14.1133 116.902 14.668C117.393 15.212 117.649 15.9053 117.649 16.748C117.649 17.58 117.404 18.2733 116.913 18.8067C116.401 19.3613 115.729 19.6493 114.897 19.6493C114.065 19.6493 113.393 19.3613 112.881 18.8067C112.39 18.2733 112.145 17.58 112.145 16.748C112.145 15.9053 112.39 15.212 112.892 14.668C113.393 14.1133 114.065 13.836 114.897 13.836ZM114.897 14.764C114.374 14.764 113.969 14.9667 113.681 15.3827C113.425 15.7347 113.308 16.1933 113.308 16.748C113.308 17.3027 113.425 17.7507 113.681 18.1027C113.969 18.508 114.374 18.7213 114.897 18.7213C115.42 18.7213 115.825 18.508 116.124 18.1027C116.38 17.74 116.508 17.292 116.508 16.748C116.508 16.1933 116.38 15.7347 116.124 15.3827C115.825 14.9667 115.42 14.764 114.897 14.764ZM120.782 13.836C122.211 13.836 123 14.412 123.128 15.5747H122.03C121.944 15.276 121.816 15.0733 121.635 14.956C121.443 14.828 121.144 14.764 120.76 14.764C120.419 14.764 120.163 14.8067 119.992 14.9133C119.79 15.02 119.694 15.1907 119.694 15.404C119.694 15.596 119.843 15.756 120.142 15.8947C120.334 15.98 120.696 16.0867 121.251 16.2253C121.88 16.3747 122.35 16.556 122.648 16.748C123.086 17.0253 123.31 17.4093 123.31 17.9C123.31 19.0627 122.488 19.6493 120.856 19.6493C119.342 19.6493 118.531 18.9987 118.403 17.7187H119.512C119.576 18.092 119.715 18.3587 119.907 18.508C120.099 18.6467 120.398 18.7213 120.824 18.7213C121.699 18.7213 122.147 18.4653 122.147 17.9747C122.147 17.708 121.976 17.4947 121.656 17.3453C121.486 17.26 121.112 17.1533 120.547 17.0253C119.896 16.876 119.438 16.716 119.182 16.5453C118.755 16.2787 118.542 15.9053 118.542 15.436C118.542 14.9347 118.744 14.54 119.16 14.2627C119.576 13.9747 120.12 13.836 120.782 13.836Z" fill="white"/>
<defs>
<filter id="filter0_d_2994_86017" x="6.28001" y="3.63173" width="26.9566" height="25.8834" filterUnits="userSpaceOnUse" color-interpolation-filters="sRGB">
<feFlood flood-opacity="0" result="BackgroundImageFix"/>
<feColorMatrix in="SourceAlpha" type="matrix" values="0 0 0 0 0 0 0 0 0 0 0 0 0 0 0 0 0 0 127 0" result="hardAlpha"/>
<feOffset dy="0.533333"/>
<feGaussianBlur stdDeviation="2.53968"/>
<feComposite in2="hardAlpha" operator="out"/>
<feColorMatrix type="matrix" values="0 0 0 0 1 0 0 0 0 1 0 0 0 0 1 0 0 0 0.25 0"/>
<feBlend mode="normal" in2="BackgroundImageFix" result="effect1_dropShadow_2994_86017"/>
<feBlend mode="normal" in="SourceGraphic" in2="effect1_dropShadow_2994_86017" result="shape"/>
</filter>
<linearGradient id="paint0_linear_2994_86017" x1="0.277344" y1="16" x2="132.722" y2="16" gradientUnits="userSpaceOnUse">
<stop stop-color="#050606"/>
<stop offset="1" stop-color="#21272D"/>
</linearGradient>
</defs>
</svg>
