<svg xmlns="http://www.w3.org/2000/svg" width="260" height="260" fill="none"><path fill="url(#a)" d="m23.029 57.732 95.74-55.064a19.998 19.998 0 0 1 19.766-.1l98.261 55.2A20 20 0 0 1 247 75.203v109.592a20 20 0 0 1-10.204 17.437l-98.261 55.199a19.997 19.997 0 0 1-19.766-.1l-95.74-55.064A20 20 0 0 1 13 184.931V75.069a20 20 0 0 1 10.029-17.337Z"/><path fill="#000" d="M106.254 75.5h29.492v48.627L161.335 75.5H191v105h-29.657v-48.659l-25.597 48.642v.017H106.08l.009-.017v-48.311L80.657 180.5H51l55.254-105Z"/><defs><radialGradient id="a" cx="0" cy="0" r="1" gradientTransform="rotate(90 0 130) scale(133)" gradientUnits="userSpaceOnUse"><stop offset=".315" stop-color="#00FB82"/><stop offset="1" stop-color="#00DD73"/></radialGradient></defs></svg>