<svg width="133" height="33" viewBox="0 0 133 33" fill="none" xmlns="http://www.w3.org/2000/svg">
<rect x="0.721788" y="0.944444" width="131.556" height="31.1111" rx="3.11111" fill="white"/>
<g filter="url(#filter0_d_2996_86089)">
<path d="M27.6468 13.1292C27.5985 12.9752 27.5392 12.8248 27.4693 12.6794V12.67C27.1434 12.0046 26.6031 11.4692 25.9359 11.1507C25.2688 10.8321 24.514 10.7491 23.7939 10.9151C23.0739 11.0812 22.4309 11.4864 21.9691 12.0652C21.5074 12.644 21.2541 13.3624 21.2502 14.1038C21.2503 14.337 21.2753 14.5695 21.3249 14.7973C21.3251 14.8004 21.3251 14.8035 21.3249 14.8067C21.3436 14.9004 21.3716 14.9941 21.3996 15.0878C21.5663 15.748 21.5987 16.435 21.495 17.1081C21.3912 17.7811 21.1534 18.4262 20.7958 19.005C20.4382 19.5837 19.968 20.0843 19.4134 20.4767C18.8587 20.8691 18.231 21.1453 17.5677 21.2889C16.9043 21.4325 16.219 21.4405 15.5525 21.3124C14.886 21.1844 14.252 20.9229 13.6885 20.5435C13.1249 20.1642 12.6432 19.6748 12.2723 19.1045C11.9013 18.5343 11.6486 17.8949 11.5293 17.2245C11.698 18.3866 12.1081 19.5002 12.7328 20.4931C13.3576 21.4861 14.1832 22.3364 15.1562 22.9888C16.1292 23.6413 17.2279 24.0814 18.3811 24.2807C19.5343 24.48 20.7164 24.4341 21.8508 24.1459C22.9852 23.8576 24.0467 23.3335 24.9664 22.6075C25.8862 21.8814 26.6438 20.9696 27.1902 19.9311C27.7365 18.8926 28.0595 17.7505 28.1382 16.5788C28.2168 15.4071 28.0494 14.2319 27.6468 13.1292V13.1292Z" fill="#6378FF"/>
<path d="M14.3777 15.9499C15.4609 17.5337 17.7021 17.3931 17.7021 17.3931C17.1418 16.8496 16.7776 16.3529 16.7402 14.9378C16.7029 13.5227 15.8998 13.1479 15.8998 13.1479C17.3379 12.2389 16.8243 11.2549 16.7776 10.1584C16.7496 9.47433 17.1511 8.96828 17.4686 8.67776C15.6412 8.95247 13.99 9.92442 12.8592 11.391C11.7284 12.8575 11.2053 14.7055 11.3989 16.5497C11.5296 16.1842 13.3785 14.488 14.3777 15.9499Z" fill="#0AA3F9"/>
<path d="M27.6468 13.1292C27.5985 12.9752 27.5392 12.8248 27.4693 12.6794V12.67C27.1434 12.0046 26.6031 11.4692 25.9359 11.1507C25.2688 10.8321 24.514 10.7491 23.7939 10.9151C23.0739 11.0812 22.4309 11.4864 21.9691 12.0652C21.5074 12.644 21.2541 13.3624 21.2502 14.1038C21.2503 14.337 21.2753 14.5695 21.3249 14.7973C21.3251 14.8004 21.3251 14.8035 21.3249 14.8067C21.3436 14.9004 21.3716 14.9941 21.3996 15.0878C21.5663 15.748 21.5987 16.435 21.495 17.1081C21.3912 17.7811 21.1534 18.4262 20.7958 19.005C20.4382 19.5837 19.968 20.0843 19.4134 20.4767C18.8587 20.8691 18.231 21.1453 17.5677 21.2889C16.9043 21.4325 16.219 21.4405 15.5525 21.3124C14.886 21.1844 14.252 20.9229 13.6885 20.5435C13.1249 20.1642 12.6432 19.6748 12.2723 19.1045C11.9013 18.5343 11.6486 17.8949 11.5293 17.2245C11.698 18.3866 12.1081 19.5002 12.7328 20.4931C13.3576 21.4861 14.1832 22.3364 15.1562 22.9888C16.1292 23.6413 17.2279 24.0814 18.3811 24.2807C19.5343 24.48 20.7164 24.4341 21.8508 24.1459C22.9852 23.8576 24.0467 23.3335 24.9664 22.6075C25.8862 21.8814 26.6438 20.9696 27.1902 19.9311C27.7365 18.8926 28.0595 17.7505 28.1382 16.5788C28.2168 15.4071 28.0494 14.2319 27.6468 13.1292V13.1292Z" fill="#0AA3F9"/>
<path fill-rule="evenodd" clip-rule="evenodd" d="M26.2549 15.3877C26.2549 19.4712 22.9563 22.7816 18.8872 22.7816C16.7271 22.7816 14.7842 21.8488 13.4365 20.3626C13.5185 20.4254 13.6024 20.4857 13.6883 20.5435C14.2518 20.9228 14.8858 21.1843 15.5523 21.3124C16.2188 21.4405 16.9041 21.4325 17.5675 21.2889C18.2308 21.1453 18.8585 20.869 19.4132 20.4766C19.9678 20.0842 20.438 19.5837 20.7956 19.0049C21.1532 18.4262 21.391 17.781 21.4948 17.108C21.5985 16.435 21.5661 15.7479 21.3994 15.0878C21.3714 14.994 21.3434 14.9003 21.3247 14.8066C21.3249 14.8035 21.3249 14.8004 21.3247 14.7973C21.2751 14.5694 21.2501 14.337 21.25 14.1038C21.2539 13.3623 21.5072 12.644 21.9689 12.0652C22.4307 11.4864 23.0737 11.0811 23.7938 10.9151C24.0907 10.8467 24.3935 10.8205 24.6937 10.8358C25.6719 12.0908 26.2549 13.6709 26.2549 15.3877Z" fill="#7ABBFD"/>
</g>
<path d="M36.5797 12.384H39.353C40.5797 12.384 41.5077 12.7253 42.1477 13.4187C42.745 14.0587 43.0437 14.9867 43.0437 16.192C43.0437 17.3867 42.7343 18.3147 42.1263 18.976C41.4863 19.6587 40.5583 20 39.3317 20H36.5797V12.384ZM37.7423 13.376V19.008H39.1183C40.0783 19.008 40.793 18.7733 41.241 18.3147C41.6783 17.856 41.9023 17.152 41.9023 16.192C41.9023 15.2107 41.6783 14.5067 41.2517 14.0587C40.8037 13.6 40.0997 13.376 39.1397 13.376H37.7423ZM46.4548 14.336C47.3508 14.336 48.0442 14.6347 48.5135 15.2533C48.9402 15.808 49.1642 16.576 49.1748 17.5573H44.9935C45.0362 18.0907 45.1748 18.5067 45.4308 18.7947C45.6868 19.072 46.0388 19.2213 46.4868 19.2213C46.8815 19.2213 47.2015 19.1253 47.4468 18.944C47.6388 18.7947 47.7988 18.5493 47.9482 18.2293H49.0788C48.9508 18.7413 48.7055 19.1787 48.3215 19.52C47.8415 19.936 47.2335 20.1493 46.4975 20.1493C45.6868 20.1493 45.0362 19.8933 44.5668 19.392C44.0548 18.8587 43.7988 18.144 43.7988 17.2373C43.7988 16.416 44.0335 15.7333 44.5242 15.1787C44.9935 14.6133 45.6442 14.336 46.4548 14.336ZM46.4868 15.264C46.0602 15.264 45.7295 15.3813 45.4735 15.6373C45.2388 15.8827 45.0788 16.2347 45.0148 16.704H47.9908C47.8842 15.744 47.3828 15.264 46.4868 15.264ZM52.9023 14.336C53.713 14.336 54.3423 14.624 54.8117 15.2C55.2383 15.7333 55.4517 16.416 55.4517 17.2693C55.4517 18.08 55.2383 18.752 54.8223 19.2853C54.3743 19.8613 53.745 20.1493 52.9557 20.1493C52.273 20.1493 51.7183 19.8293 51.2703 19.1893V22.112H50.1397V14.4853H51.1957V15.1467C51.5797 14.6027 52.1557 14.336 52.9023 14.336ZM52.7317 15.2533C52.241 15.2533 51.857 15.4453 51.5903 15.84C51.3557 16.1813 51.2383 16.64 51.2383 17.2053V17.3013C51.2383 17.888 51.377 18.368 51.6757 18.7307C51.9317 19.0613 52.273 19.232 52.6997 19.232C53.2543 19.232 53.6597 19.0507 53.9263 18.688C54.161 18.3467 54.289 17.8773 54.289 17.2693C54.289 16.6613 54.1717 16.192 53.9583 15.8507C53.6917 15.4453 53.2863 15.2533 52.7317 15.2533ZM56.6427 12.2347H57.7733V20H56.6427V12.2347ZM61.72 14.336C62.552 14.336 63.224 14.6133 63.7253 15.168C64.216 15.712 64.472 16.4053 64.472 17.248C64.472 18.08 64.2267 18.7733 63.736 19.3067C63.224 19.8613 62.552 20.1493 61.72 20.1493C60.888 20.1493 60.216 19.8613 59.704 19.3067C59.2133 18.7733 58.968 18.08 58.968 17.248C58.968 16.4053 59.2133 15.712 59.7147 15.168C60.216 14.6133 60.888 14.336 61.72 14.336ZM61.72 15.264C61.1973 15.264 60.792 15.4667 60.504 15.8827C60.248 16.2347 60.1307 16.6933 60.1307 17.248C60.1307 17.8027 60.248 18.2507 60.504 18.6027C60.792 19.008 61.1973 19.2213 61.72 19.2213C62.2427 19.2213 62.648 19.008 62.9467 18.6027C63.2027 18.24 63.3307 17.792 63.3307 17.248C63.3307 16.6933 63.2027 16.2347 62.9467 15.8827C62.648 15.4667 62.2427 15.264 61.72 15.264ZM64.9593 14.4853H66.1859L67.7006 18.5067L69.1513 14.4853H70.3886L67.3913 22.112H66.1859L67.1459 19.872L64.9593 14.4853ZM77.1679 14.336C77.9999 14.336 78.6719 14.6133 79.1733 15.168C79.6639 15.712 79.9199 16.4053 79.9199 17.248C79.9199 18.08 79.6746 18.7733 79.1839 19.3067C78.6719 19.8613 77.9999 20.1493 77.1679 20.1493C76.3359 20.1493 75.6639 19.8613 75.1519 19.3067C74.6613 18.7733 74.4159 18.08 74.4159 17.248C74.4159 16.4053 74.6613 15.712 75.1626 15.168C75.6639 14.6133 76.3359 14.336 77.1679 14.336ZM77.1679 15.264C76.6453 15.264 76.2399 15.4667 75.9519 15.8827C75.6959 16.2347 75.5786 16.6933 75.5786 17.248C75.5786 17.8027 75.6959 18.2507 75.9519 18.6027C76.2399 19.008 76.6453 19.2213 77.1679 19.2213C77.6906 19.2213 78.0959 19.008 78.3946 18.6027C78.6506 18.24 78.7786 17.792 78.7786 17.248C78.7786 16.6933 78.6506 16.2347 78.3946 15.8827C78.0959 15.4667 77.6906 15.264 77.1679 15.264ZM83.7885 14.336C85.1538 14.336 85.8472 15.0827 85.8472 16.5973V20H84.7165V16.6933C84.7165 15.7547 84.2792 15.2853 83.4258 15.2853C83.1058 15.2853 82.8178 15.392 82.5832 15.6267C82.3272 15.8827 82.1672 16.2347 82.1245 16.6827V20H80.9938V14.4853H82.1245V15.168C82.3378 14.8907 82.5832 14.688 82.8605 14.5493C83.1378 14.4 83.4472 14.336 83.7885 14.336ZM93.4651 12.2347C94.3504 12.2347 95.0438 12.416 95.5451 12.8C96.0784 13.1947 96.3771 13.8027 96.4518 14.6347H95.2998C95.1931 14.144 95.0011 13.7813 94.7024 13.568C94.4038 13.344 93.9771 13.2373 93.4011 13.2373C92.8998 13.2373 92.5158 13.312 92.2491 13.4613C91.9184 13.632 91.7584 13.9093 91.7584 14.2933C91.7584 14.6347 91.9398 14.9013 92.3238 15.104C92.4944 15.2 92.9318 15.36 93.6464 15.5733C94.6704 15.8933 95.3424 16.1387 95.6411 16.32C96.2918 16.7147 96.6224 17.2587 96.6224 17.9627C96.6224 18.6453 96.3558 19.1787 95.8224 19.5733C95.2891 19.9573 94.5424 20.1493 93.5824 20.1493C92.6544 20.1493 91.9291 19.9573 91.4064 19.5947C90.7771 19.1467 90.4358 18.4427 90.3718 17.4827H91.5238C91.6091 18.08 91.8224 18.5173 92.1638 18.7733C92.4731 19.008 92.9424 19.1253 93.5824 19.1253C94.1584 19.1253 94.6171 19.0187 94.9584 18.8267C95.2998 18.6347 95.4704 18.368 95.4704 18.0267C95.4704 17.6 95.2251 17.2693 94.7451 17.024C94.5744 16.9387 94.0731 16.768 93.2304 16.512C92.2918 16.2133 91.7158 16.0107 91.4811 15.8827C90.8944 15.5307 90.6064 15.0187 90.6064 14.3573C90.6064 13.6853 90.8838 13.1627 91.4491 12.7787C91.9824 12.416 92.6544 12.2347 93.4651 12.2347ZM99.934 14.336C100.83 14.336 101.523 14.6347 101.993 15.2533C102.419 15.808 102.643 16.576 102.654 17.5573H98.4727C98.5153 18.0907 98.654 18.5067 98.91 18.7947C99.166 19.072 99.518 19.2213 99.966 19.2213C100.361 19.2213 100.681 19.1253 100.926 18.944C101.118 18.7947 101.278 18.5493 101.427 18.2293H102.558C102.43 18.7413 102.185 19.1787 101.801 19.52C101.321 19.936 100.713 20.1493 99.9767 20.1493C99.166 20.1493 98.5153 19.8933 98.046 19.392C97.534 18.8587 97.278 18.144 97.278 17.2373C97.278 16.416 97.5127 15.7333 98.0033 15.1787C98.4727 14.6133 99.1233 14.336 99.934 14.336ZM99.966 15.264C99.5393 15.264 99.2087 15.3813 98.9527 15.6373C98.718 15.8827 98.558 16.2347 98.494 16.704H101.47C101.363 15.744 100.862 15.264 99.966 15.264ZM106.104 14.336C106.915 14.336 107.512 14.5387 107.896 14.944C108.227 15.296 108.398 15.808 108.398 16.48V20H107.352V19.2213C107.139 19.4987 106.872 19.7227 106.552 19.8827C106.19 20.0533 105.763 20.1493 105.272 20.1493C104.696 20.1493 104.248 20 103.928 19.712C103.576 19.424 103.406 19.0507 103.406 18.592C103.406 17.9733 103.651 17.4933 104.142 17.1627C104.59 16.8427 105.23 16.6827 106.04 16.6613L107.278 16.6293V16.4053C107.278 15.6373 106.862 15.2533 106.03 15.2533C105.678 15.2533 105.39 15.3173 105.176 15.4453C104.92 15.5947 104.76 15.8187 104.696 16.128L103.576 16.032C103.694 15.4347 103.992 14.9867 104.462 14.7093C104.867 14.4533 105.422 14.336 106.104 14.336ZM107.278 17.4507L106.115 17.4827C105.08 17.504 104.568 17.8667 104.568 18.5493C104.568 18.7627 104.654 18.9333 104.835 19.072C105.006 19.2107 105.24 19.2853 105.528 19.2853C106.008 19.2853 106.414 19.136 106.755 18.848C107.096 18.56 107.278 18.1973 107.278 17.7707V17.4507ZM109.82 12.2347H110.95V20H109.82V12.2347ZM114.897 14.336C115.729 14.336 116.401 14.6133 116.902 15.168C117.393 15.712 117.649 16.4053 117.649 17.248C117.649 18.08 117.404 18.7733 116.913 19.3067C116.401 19.8613 115.729 20.1493 114.897 20.1493C114.065 20.1493 113.393 19.8613 112.881 19.3067C112.39 18.7733 112.145 18.08 112.145 17.248C112.145 16.4053 112.39 15.712 112.892 15.168C113.393 14.6133 114.065 14.336 114.897 14.336ZM114.897 15.264C114.374 15.264 113.969 15.4667 113.681 15.8827C113.425 16.2347 113.308 16.6933 113.308 17.248C113.308 17.8027 113.425 18.2507 113.681 18.6027C113.969 19.008 114.374 19.2213 114.897 19.2213C115.42 19.2213 115.825 19.008 116.124 18.6027C116.38 18.24 116.508 17.792 116.508 17.248C116.508 16.6933 116.38 16.2347 116.124 15.8827C115.825 15.4667 115.42 15.264 114.897 15.264ZM120.782 14.336C122.211 14.336 123 14.912 123.128 16.0747H122.03C121.944 15.776 121.816 15.5733 121.635 15.456C121.443 15.328 121.144 15.264 120.76 15.264C120.419 15.264 120.163 15.3067 119.992 15.4133C119.79 15.52 119.694 15.6907 119.694 15.904C119.694 16.096 119.843 16.256 120.142 16.3947C120.334 16.48 120.696 16.5867 121.251 16.7253C121.88 16.8747 122.35 17.056 122.648 17.248C123.086 17.5253 123.31 17.9093 123.31 18.4C123.31 19.5627 122.488 20.1493 120.856 20.1493C119.342 20.1493 118.531 19.4987 118.403 18.2187H119.512C119.576 18.592 119.715 18.8587 119.907 19.008C120.099 19.1467 120.398 19.2213 120.824 19.2213C121.699 19.2213 122.147 18.9653 122.147 18.4747C122.147 18.208 121.976 17.9947 121.656 17.8453C121.486 17.76 121.112 17.6533 120.547 17.5253C119.896 17.376 119.438 17.216 119.182 17.0453C118.755 16.7787 118.542 16.4053 118.542 15.936C118.542 15.4347 118.744 15.04 119.16 14.7627C119.576 14.4747 120.12 14.336 120.782 14.336Z" fill="black"/>
<rect x="0.721788" y="0.944444" width="131.556" height="31.1111" rx="3.11111" stroke="#DEE0E2" stroke-width="0.888889"/>
<defs>
<filter id="filter0_d_2996_86089" x="6.28001" y="4.13173" width="26.9566" height="25.8834" filterUnits="userSpaceOnUse" color-interpolation-filters="sRGB">
<feFlood flood-opacity="0" result="BackgroundImageFix"/>
<feColorMatrix in="SourceAlpha" type="matrix" values="0 0 0 0 0 0 0 0 0 0 0 0 0 0 0 0 0 0 127 0" result="hardAlpha"/>
<feOffset dy="0.533333"/>
<feGaussianBlur stdDeviation="2.53968"/>
<feComposite in2="hardAlpha" operator="out"/>
<feColorMatrix type="matrix" values="0 0 0 0 1 0 0 0 0 1 0 0 0 0 1 0 0 0 0.25 0"/>
<feBlend mode="normal" in2="BackgroundImageFix" result="effect1_dropShadow_2996_86089"/>
<feBlend mode="normal" in="SourceGraphic" in2="effect1_dropShadow_2996_86089" result="shape"/>
</filter>
</defs>
</svg>
