<svg version="1.1" id="Layer_1" xmlns:x="ns_extend;" xmlns:i="ns_ai;" xmlns:graph="ns_graphs;" xmlns="http://www.w3.org/2000/svg" xmlns:xlink="http://www.w3.org/1999/xlink" x="0px" y="0px" viewBox="0 0 95.7 99" style="enable-background:new 0 0 95.7 99;" xml:space="preserve">
 <style type="text/css">
  .st0{fill-rule:evenodd;clip-rule:evenodd;fill:#615EFF;}
 </style>
 <metadata>
  <sfw xmlns="ns_sfw;">
   <slices>
   </slices>
   <sliceSourceBounds bottomLeftOrigin="true" height="99" width="95.7" x="77.2" y="75">
   </sliceSourceBounds>
  </sfw>
 </metadata>
 <g>
  <path class="st0" d="M32.6,12C43.2,0.1,60.8-3.4,75.2,3.5c19.2,9.1,26.1,32.4,15.7,50.3L67.4,94.1c-1.3,2.3-3.5,3.9-6,4.6
		c-2.5,0.7-5.2,0.3-7.5-1l28.4-48.8c7.6-13,2.5-29.9-11.4-36.5c-10.4-5-23.2-2.5-30.9,6.1c-4.2,4.7-6.6,10.8-6.7,17.1
		c-0.1,6.3,2.2,12.5,6.3,17.3c0.7,0.9,1.5,1.7,2.4,2.4L25.5,83.8c-0.6,1.1-1.5,2.1-2.5,2.9c-1,0.8-2.2,1.4-3.5,1.7
		c-1.3,0.3-2.6,0.4-3.8,0.3c-1.3-0.2-2.5-0.6-3.6-1.2l18-31c-2.6-3.7-4.4-7.9-5.5-12.2l-11,19c-1.3,2.3-3.5,3.9-6,4.6S2.3,68,0,66.7
		l28.5-49.1C29.7,15.7,31.1,13.8,32.6,12z M65.6,27.6c6.9,3.9,9.2,12.7,5.3,19.5L43.5,94.1c-1.3,2.3-3.5,3.9-6,4.6
		c-2.5,0.7-5.2,0.3-7.5-1L55.4,54c-2-0.4-4-1.3-5.6-2.5c-1.7-1.2-3.1-2.8-4-4.6c-1-1.8-1.6-3.8-1.7-5.9c-0.1-2.1,0.2-4.1,0.9-6.1
		c0.7-1.9,1.9-3.7,3.4-5.1c1.5-1.4,3.3-2.5,5.2-3.2c2-0.7,4.1-0.9,6.1-0.8C61.8,26,63.8,26.6,65.6,27.6z M55.6,36.5
		c-0.5,0.4-0.9,0.8-1.2,1.3h0c-0.4,0.8-0.7,1.7-0.6,2.5c0.1,0.9,0.4,1.7,0.9,2.4c0.5,0.7,1.3,1.2,2.1,1.5c0.8,0.3,1.8,0.3,2.6,0.1
		c0.9-0.2,1.6-0.7,2.2-1.4c0.6-0.7,1-1.5,1.1-2.4c0.1-0.9,0-1.8-0.4-2.6c-0.4-0.8-1-1.5-1.8-1.9c-0.5-0.3-1.1-0.5-1.7-0.6
		s-1.2,0-1.8,0.1C56.6,35.8,56.1,36.1,55.6,36.5z">
  </path>
 </g>
</svg>